<svg width="26" height="26" viewBox="0 0 26 26" fill="none" xmlns="http://www.w3.org/2000/svg">
<path opacity="0.3" fill-rule="evenodd" clip-rule="evenodd" d="M22.1067 7.2974C22.4979 7.47128 22.75 7.85924 22.75 8.28736V17.7792C22.75 18.1727 22.5367 18.5352 22.1928 18.7262L13.5261 23.541C13.1989 23.7228 12.8011 23.7228 12.4739 23.541L3.80722 18.7262C3.4633 18.5352 3.25 18.1727 3.25 17.7792V8.28736C3.25 7.85924 3.50213 7.47128 3.89335 7.2974L12.56 3.44555C12.8401 3.32105 13.1599 3.32105 13.44 3.44555L22.1067 7.2974Z" fill="currentColor"/>
<path fill-rule="evenodd" clip-rule="evenodd" d="M16.2144 4.57645L8.23334 9.01039V13.9812L10.4 15.0645V10.2853L18.693 5.67804L16.2144 4.57645Z" fill="currentColor"/>
</svg>
