<svg width="26" height="26" viewBox="0 0 26 26" fill="none" xmlns="http://www.w3.org/2000/svg">
<path opacity="0.3" d="M16.25 5.95834C16.25 5.06087 15.5225 4.33334 14.625 4.33334C13.7275 4.33334 13 5.06087 13 5.95834V16.7917C13 17.6891 13.7275 18.4167 14.625 18.4167C15.5225 18.4167 16.25 17.6891 16.25 16.7917V5.95834Z" fill="currentColor"/>
<path opacity="0.3" d="M10.8333 11.375C10.8333 10.4775 10.1058 9.75 9.20833 9.75C8.31087 9.75 7.58333 10.4775 7.58333 11.375V16.7917C7.58333 17.6891 8.31087 18.4167 9.20833 18.4167C10.1058 18.4167 10.8333 17.6891 10.8333 16.7917V11.375Z" fill="currentColor"/>
<path d="M5.41667 20.5833H21.6667C22.265 20.5833 22.75 21.0684 22.75 21.6667C22.75 22.265 22.265 22.75 21.6667 22.75H4.33333C3.73502 22.75 3.25 22.265 3.25 21.6667V4.33333C3.25 3.73502 3.73502 3.25 4.33333 3.25C4.93164 3.25 5.41667 3.73502 5.41667 4.33333V20.5833Z" fill="currentColor"/>
<path opacity="0.3" d="M21.6667 13.5417C21.6667 12.6442 20.9391 11.9167 20.0417 11.9167C19.1442 11.9167 18.4167 12.6442 18.4167 13.5417V16.7917C18.4167 17.6891 19.1442 18.4167 20.0417 18.4167C20.9391 18.4167 21.6667 17.6891 21.6667 16.7917V13.5417Z" fill="currentColor"/>
</svg>
