<svg width="26" height="26" viewBox="0 0 26 26" fill="none" xmlns="http://www.w3.org/2000/svg">
<path opacity="0.3" fill-rule="evenodd" clip-rule="evenodd" d="M13 23.8333C7.61522 23.8333 3.25 19.4681 3.25 14.0833C3.25 8.69856 7.61522 4.33334 13 4.33334C18.3848 4.33334 22.75 8.69856 22.75 14.0833C22.75 19.4681 18.3848 23.8333 13 23.8333Z" fill="currentColor"/>
<path fill-rule="evenodd" clip-rule="evenodd" d="M12.9599 8.125H13.0515C13.3298 8.125 13.5628 8.33587 13.5905 8.61277L14.0833 13.5417L17.6021 15.5524C17.7709 15.6488 17.875 15.8283 17.875 16.0227V16.25C17.875 16.4785 17.6898 16.6637 17.4613 16.6637C17.4245 16.6637 17.3879 16.6588 17.3524 16.6491L12.3486 15.2845C12.0979 15.2161 11.9311 14.9794 11.951 14.7203L12.4199 8.62512C12.4416 8.34292 12.6769 8.125 12.9599 8.125Z" fill="currentColor"/>
</svg>
