<svg width="26" height="26" viewBox="0 0 26 26" fill="none" xmlns="http://www.w3.org/2000/svg">
<path opacity="0.3" d="M19.5 15.1667C17.7051 15.1667 16.25 13.7116 16.25 11.9167C16.25 10.1217 17.7051 8.66667 19.5 8.66667C21.2949 8.66667 22.75 10.1217 22.75 11.9167C22.75 13.7116 21.2949 15.1667 19.5 15.1667ZM9.74999 11.9167C7.35676 11.9167 5.41666 9.97657 5.41666 7.58333C5.41666 5.1901 7.35676 3.25 9.74999 3.25C12.1432 3.25 14.0833 5.1901 14.0833 7.58333C14.0833 9.97657 12.1432 11.9167 9.74999 11.9167Z" fill="inherit"/>
<path d="M19.068 16.2507C22.7583 16.291 25.7716 18.1568 25.9984 22.1C26.0075 22.2588 25.9984 22.75 25.4106 22.75H21.2333C21.2333 20.3115 20.4277 18.0612 19.068 16.2507ZM0.000705991 21.8825C0.420613 16.7121 4.61707 14.0833 9.73195 14.0833C14.9188 14.0833 19.1803 16.5676 19.4977 21.8833C19.5104 22.0951 19.4977 22.75 18.6839 22.75C14.6696 22.75 8.70429 22.75 0.788127 22.75C0.516438 22.75 -0.0221669 22.1641 0.000705991 21.8825Z" fill="inherit"/>
</svg>
