<svg width="26" height="26" viewBox="0 0 26 26" fill="none" xmlns="http://www.w3.org/2000/svg">
<path fill-rule="evenodd" clip-rule="evenodd" d="M4.28685 9.11637L12.4351 4.13689C12.7819 3.92496 13.2181 3.92496 13.5649 4.13689L21.7131 9.11637C22.3572 9.50995 22.75 10.2104 22.75 10.9651V20.5834C22.75 21.78 21.7799 22.7501 20.5833 22.7501L5.41664 22.7501C4.22002 22.7501 3.24997 21.78 3.24997 20.5834L3.24999 10.9651C3.24999 10.2103 3.6428 9.50995 4.28685 9.11637ZM10.8333 14.0833C10.235 14.0833 9.74999 14.5684 9.74999 15.1667V18.4167C9.74999 19.015 10.235 19.5 10.8333 19.5H15.1667C15.765 19.5 16.25 19.015 16.25 18.4167V15.1667C16.25 14.5684 15.765 14.0833 15.1667 14.0833H10.8333Z" fill="#F42323"/>
</svg>
