<svg width="26" height="26" viewBox="0 0 26 26" fill="none" xmlns="http://www.w3.org/2000/svg">
<path opacity="0.3" fill-rule="evenodd" clip-rule="evenodd" d="M6.49999 2.16666H19.5C20.0983 2.16666 20.5833 2.65169 20.5833 3.25V13C20.5833 13.5983 20.0983 14.0833 19.5 14.0833H6.49999C5.90168 14.0833 5.41666 13.5983 5.41666 13V3.25C5.41666 2.65169 5.90168 2.16666 6.49999 2.16666ZM8.12499 5.41666C7.82584 5.41666 7.58332 5.65918 7.58332 5.95833C7.58332 6.25749 7.82584 6.5 8.12499 6.5H14.625C14.9241 6.5 15.1667 6.25749 15.1667 5.95833C15.1667 5.65918 14.9241 5.41666 14.625 5.41666H8.12499ZM8.12499 7.58333C7.82584 7.58333 7.58332 7.82584 7.58332 8.125C7.58332 8.42415 7.82584 8.66666 8.12499 8.66666H11.375C11.6741 8.66666 11.9167 8.42415 11.9167 8.125C11.9167 7.82584 11.6741 7.58333 11.375 7.58333H8.12499Z" fill="currentColor"/>
<path fill-rule="evenodd" clip-rule="evenodd" d="M4.10881 7.12025L13 13.5417L21.8912 7.12025C22.1337 6.9451 22.4723 6.99971 22.6475 7.24223C22.7141 7.33454 22.75 7.4455 22.75 7.55937V18.4167C22.75 19.6133 21.78 20.5833 20.5833 20.5833H5.41667C4.22005 20.5833 3.25 19.6133 3.25 18.4167V7.55937C3.25 7.26021 3.49251 7.0177 3.79167 7.0177C3.90553 7.0177 4.0165 7.05358 4.10881 7.12025Z" fill="currentColor"/>
</svg>
