<svg width="26" height="26" viewBox="0 0 26 26" fill="none" xmlns="http://www.w3.org/2000/svg">
<path opacity="0.3" fill-rule="evenodd" clip-rule="evenodd" d="M4.19968 4.0578L24.0817 9.38516C24.6596 9.54002 25.0025 10.134 24.8477 10.712L22.0438 21.1762C21.889 21.7541 21.2949 22.0971 20.717 21.9422L0.835032 16.6148C0.25711 16.46 -0.0858544 15.866 0.0689992 15.288L2.87287 4.82384C3.02773 4.24591 3.62176 3.90295 4.19968 4.0578ZM11.3368 17.1857C13.6485 17.8051 16.0246 16.4332 16.644 14.1216C17.2634 11.8099 15.8916 9.43374 13.5799 8.81432C11.2682 8.19491 8.89208 9.56677 8.27266 11.8785C7.65325 14.1901 9.02511 16.5663 11.3368 17.1857Z" fill="currentColor"/>
<path fill-rule="evenodd" clip-rule="evenodd" d="M2.16666 6.5H22.75C23.3483 6.5 23.8333 6.98502 23.8333 7.58333V18.4167C23.8333 19.015 23.3483 19.5 22.75 19.5H2.16666C1.56835 19.5 1.08333 19.015 1.08333 18.4167V7.58333C1.08333 6.98502 1.56835 6.5 2.16666 6.5ZM12.4583 17.3333C14.8516 17.3333 16.7917 15.3932 16.7917 13C16.7917 10.6068 14.8516 8.66667 12.4583 8.66667C10.0651 8.66667 8.125 10.6068 8.125 13C8.125 15.3932 10.0651 17.3333 12.4583 17.3333ZM12.4583 15.1667C13.6549 15.1667 14.625 14.1966 14.625 13C14.625 11.8034 13.6549 10.8333 12.4583 10.8333C11.2617 10.8333 10.2917 11.8034 10.2917 13C10.2917 14.1966 11.2617 15.1667 12.4583 15.1667Z" fill="currentColor"/>
</svg>
