<svg width="26" height="26" viewBox="0 0 26 26" fill="none" xmlns="http://www.w3.org/2000/svg">
<path opacity="0.3" fill-rule="evenodd" clip-rule="evenodd" d="M7.04166 17.3333H8.12499C9.02245 17.3333 9.74999 18.0609 9.74999 18.9583V21.125C9.74999 22.0225 9.02245 22.75 8.12499 22.75H7.04166C6.14419 22.75 5.41666 22.0225 5.41666 21.125V18.9583C5.41666 18.0609 6.14419 17.3333 7.04166 17.3333ZM17.875 17.3333H18.9583C19.8558 17.3333 20.5833 18.0609 20.5833 18.9583V21.125C20.5833 22.0225 19.8558 22.75 18.9583 22.75H17.875C16.9775 22.75 16.25 22.0225 16.25 21.125V18.9583C16.25 18.0609 16.9775 17.3333 17.875 17.3333Z" fill="currentColor"/>
<path fill-rule="evenodd" clip-rule="evenodd" d="M5.41667 4.33334H20.5833C21.78 4.33334 22.75 5.30339 22.75 6.5V18.4167C22.75 19.6133 21.78 20.5833 20.5833 20.5833H5.41667C4.22005 20.5833 3.25 19.6133 3.25 18.4167V6.5C3.25 5.30339 4.22005 4.33334 5.41667 4.33334ZM16.7917 16.25C18.8857 16.25 20.5833 14.5524 20.5833 12.4583C20.5833 10.3643 18.8857 8.66667 16.7917 8.66667C14.6976 8.66667 13 10.3643 13 12.4583C13 14.5524 14.6976 16.25 16.7917 16.25ZM16.7917 14.0833C17.6891 14.0833 18.4167 13.3558 18.4167 12.4583C18.4167 11.5609 17.6891 10.8333 16.7917 10.8333C15.8942 10.8333 15.1667 11.5609 15.1667 12.4583C15.1667 13.3558 15.8942 14.0833 16.7917 14.0833ZM7.58333 8.66667C8.18164 8.66667 8.66667 9.15169 8.66667 9.75V11.9167C8.66667 12.515 8.18164 13 7.58333 13C6.98502 13 6.5 12.515 6.5 11.9167V9.75C6.5 9.15169 6.98502 8.66667 7.58333 8.66667Z" fill="currentColor"/>
</svg>
