<svg width="227" height="52" viewBox="0 0 227 52" fill="none" xmlns="http://www.w3.org/2000/svg">
<path d="M79.0063 37.3286C76.8943 37.3286 75.081 36.966 73.5663 36.2406C72.0516 35.494 70.8143 34.5233 69.8543 33.3286C68.8943 32.1126 68.1796 30.8113 67.7103 29.4246C67.2623 28.0166 67.0383 26.6513 67.0383 25.3286V24.6246C67.0383 23.174 67.273 21.7446 67.7423 20.3366C68.2116 18.9073 68.9263 17.6166 69.8863 16.4646C70.8676 15.3126 72.0943 14.3953 73.5663 13.7126C75.0596 13.0086 76.8196 12.6566 78.8463 12.6566C80.9583 12.6566 82.825 13.0513 84.4463 13.8406C86.0676 14.63 87.3583 15.7286 88.3183 17.1366C89.2996 18.5233 89.8756 20.1553 90.0463 22.0326H84.7663C84.617 21.094 84.2756 20.294 83.7423 19.6326C83.209 18.9713 82.5156 18.4593 81.6623 18.0966C80.8303 17.734 79.8916 17.5526 78.8463 17.5526C77.801 17.5526 76.873 17.734 76.0623 18.0966C75.2516 18.4593 74.569 18.9713 74.0143 19.6326C73.481 20.294 73.065 21.0833 72.7663 22.0006C72.489 22.8966 72.3503 23.8993 72.3503 25.0086C72.3503 26.0966 72.489 27.0993 72.7663 28.0166C73.065 28.9126 73.4916 29.702 74.0463 30.3846C74.6223 31.046 75.3263 31.558 76.1583 31.9206C76.9903 32.262 77.9396 32.4326 79.0063 32.4326C80.6276 32.4326 81.993 32.038 83.1023 31.2486C84.233 30.4593 84.9156 29.3713 85.1503 27.9846H90.3983C90.2063 29.6913 89.6303 31.2593 88.6703 32.6886C87.7316 34.0966 86.441 35.2273 84.7983 36.0806C83.177 36.9126 81.2463 37.3286 79.0063 37.3286ZM93.816 36.7206V13.3606H98.968V36.7206H93.816ZM91.736 17.1366V13.3606H98.968V17.1366H91.736ZM104.518 36.7206V19.1846H109.638V36.7206H104.518ZM102.182 22.9606V19.1846H109.638V22.9606H102.182ZM106.502 17.4566C105.542 17.4566 104.827 17.2113 104.358 16.7206C103.91 16.2086 103.686 15.5686 103.686 14.8006C103.686 14.0113 103.91 13.3713 104.358 12.8806C104.827 12.3686 105.542 12.1126 106.502 12.1126C107.462 12.1126 108.166 12.3686 108.614 12.8806C109.083 13.3713 109.318 14.0113 109.318 14.8006C109.318 15.5686 109.083 16.2086 108.614 16.7206C108.166 17.2113 107.462 17.4566 106.502 17.4566ZM114.373 36.7206V19.1846H118.437V26.7046H118.149C118.149 24.9126 118.373 23.4193 118.821 22.2246C119.291 21.03 119.995 20.134 120.933 19.5366C121.872 18.9393 123.013 18.6406 124.357 18.6406H124.581C126.629 18.6406 128.187 19.3126 129.253 20.6566C130.341 21.9793 130.885 23.9953 130.885 26.7046V36.7206H125.765V26.4166C125.765 25.478 125.488 24.71 124.933 24.1126C124.379 23.5153 123.632 23.2166 122.693 23.2166C121.733 23.2166 120.955 23.526 120.357 24.1446C119.781 24.742 119.493 25.5313 119.493 26.5126V36.7206H114.373ZM136.08 36.7206V19.1846H141.2V36.7206H136.08ZM133.744 22.9606V19.1846H141.2V22.9606H133.744ZM138.064 17.4566C137.104 17.4566 136.39 17.2113 135.92 16.7206C135.472 16.2086 135.248 15.5686 135.248 14.8006C135.248 14.0113 135.472 13.3713 135.92 12.8806C136.39 12.3686 137.104 12.1126 138.064 12.1126C139.024 12.1126 139.728 12.3686 140.176 12.8806C140.646 13.3713 140.88 14.0113 140.88 14.8006C140.88 15.5686 140.646 16.2086 140.176 16.7206C139.728 17.2113 139.024 17.4566 138.064 17.4566ZM153.808 37.3286C152.293 37.3286 150.97 37.0833 149.84 36.5926C148.73 36.0806 147.802 35.398 147.056 34.5446C146.309 33.6913 145.754 32.7313 145.392 31.6646C145.029 30.5766 144.848 29.4566 144.848 28.3046V27.6966C144.848 26.502 145.04 25.3606 145.424 24.2726C145.808 23.1633 146.373 22.182 147.12 21.3286C147.866 20.4753 148.794 19.8033 149.904 19.3126C151.034 18.822 152.325 18.5766 153.776 18.5766C155.354 18.5766 156.752 18.886 157.968 19.5046C159.184 20.102 160.154 20.9446 160.88 22.0326C161.605 23.1206 162.01 24.3686 162.096 25.7766H157.072C156.986 24.9873 156.666 24.326 156.112 23.7926C155.578 23.238 154.8 22.9606 153.776 22.9606C152.922 22.9606 152.208 23.174 151.632 23.6006C151.077 24.0273 150.661 24.614 150.384 25.3606C150.106 26.1073 149.968 26.9926 149.968 28.0166C149.968 28.9553 150.096 29.8086 150.352 30.5766C150.608 31.3233 151.013 31.91 151.568 32.3366C152.144 32.742 152.89 32.9446 153.808 32.9446C154.49 32.9446 155.066 32.8273 155.536 32.5926C156.026 32.3366 156.41 31.9953 156.688 31.5686C156.986 31.1206 157.168 30.6086 157.232 30.0326H162.224C162.16 31.4833 161.754 32.7633 161.008 33.8726C160.261 34.9606 159.269 35.814 158.032 36.4326C156.794 37.03 155.386 37.3286 153.808 37.3286Z" fill="#F42323"/>
<path d="M177.113 30.0326V25.4886H181.305C182.116 25.4886 182.809 25.3286 183.385 25.0086C183.982 24.6886 184.441 24.2406 184.761 23.6646C185.081 23.0673 185.241 22.3846 185.241 21.6166C185.241 20.806 185.081 20.1126 184.761 19.5366C184.441 18.9393 183.982 18.4913 183.385 18.1926C182.809 17.8726 182.116 17.7126 181.305 17.7126H177.113V13.1686H181.049C183.033 13.1686 184.729 13.4993 186.137 14.1606C187.566 14.822 188.654 15.7606 189.401 16.9766C190.169 18.1926 190.553 19.654 190.553 21.3606V21.8726C190.553 23.5366 190.169 24.9873 189.401 26.2246C188.654 27.4406 187.566 28.3793 186.137 29.0406C184.729 29.702 183.033 30.0326 181.049 30.0326H177.113ZM172.505 36.7206V13.1686H177.753V36.7206H172.505ZM193.717 36.7206V19.1846H197.781V26.7046H197.685C197.685 24.23 198.208 22.3206 199.253 20.9766C200.32 19.6326 201.856 18.9606 203.861 18.9606H204.533V23.3766H203.253C201.845 23.3766 200.757 23.7606 199.989 24.5286C199.221 25.2753 198.837 26.3633 198.837 27.7926V36.7206H193.717ZM215.636 37.3286C214.1 37.3286 212.735 37.094 211.54 36.6246C210.345 36.134 209.332 35.4726 208.5 34.6406C207.689 33.8086 207.071 32.8593 206.644 31.7926C206.217 30.7046 206.004 29.5633 206.004 28.3686V27.6326C206.004 26.4166 206.217 25.2646 206.644 24.1766C207.092 23.0673 207.732 22.0966 208.564 21.2646C209.417 20.4326 210.441 19.782 211.636 19.3126C212.831 18.822 214.164 18.5766 215.636 18.5766C217.151 18.5766 218.495 18.822 219.668 19.3126C220.863 19.782 221.876 20.4326 222.708 21.2646C223.54 22.0966 224.18 23.0673 224.628 24.1766C225.076 25.2646 225.3 26.4166 225.3 27.6326V28.3686C225.3 29.5633 225.087 30.7046 224.66 31.7926C224.233 32.8593 223.604 33.8086 222.772 34.6406C221.961 35.4726 220.959 36.134 219.764 36.6246C218.569 37.094 217.193 37.3286 215.636 37.3286ZM215.636 33.0086C216.639 33.0086 217.471 32.7953 218.132 32.3686C218.793 31.942 219.295 31.3446 219.636 30.5766C219.999 29.8086 220.18 28.9553 220.18 28.0166C220.18 27.014 219.999 26.1393 219.636 25.3926C219.273 24.6246 218.751 24.0166 218.068 23.5686C217.407 23.1206 216.596 22.8966 215.636 22.8966C214.697 22.8966 213.887 23.1206 213.204 23.5686C212.521 24.0166 211.999 24.6246 211.636 25.3926C211.295 26.1393 211.124 27.014 211.124 28.0166C211.124 28.9553 211.295 29.8086 211.636 30.5766C211.977 31.3446 212.489 31.942 213.172 32.3686C213.855 32.7953 214.676 33.0086 215.636 33.0086Z" fill="white"/>
<g clip-path="url(#clip0_145_11)">
<path fill-rule="evenodd" clip-rule="evenodd" d="M21.9836 4.82369C17.346 5.41441 14.0655 7.01332 10.9712 10.1912C8.97214 12.244 7.51614 14.828 6.7666 17.6525C5.98459 20.5998 5.72638 25.351 6.18905 28.2817C6.84793 32.4558 9.08035 36.5254 12.0525 38.9707C14.3407 40.8533 16.8428 42.0537 19.5359 42.5608C21.6171 42.9527 23.0403 42.9085 23.4612 42.4387C23.6272 42.2534 23.773 41.5677 24.2753 38.6099C24.6118 36.6282 24.8625 34.9437 24.8323 34.8667C24.7883 34.7544 24.5102 34.724 23.4296 34.7134C21.8528 34.698 20.977 34.5097 19.7018 33.912C18.7213 33.4525 18.1323 33.0657 17.434 32.4226C15.9816 31.0851 14.9726 29.1728 14.564 26.9831C14.3939 26.0714 14.3917 22.9295 14.5603 21.7407C14.9804 18.7798 16.1989 16.4854 18.1435 14.9934C19.2474 14.1466 20.4171 13.5756 21.5475 13.3316C21.83 13.2707 26.0134 13.2327 32.9278 13.2283C44.8366 13.2207 44.2608 13.1957 45.4466 13.7705C46.196 14.1338 47.3146 15.2194 47.7615 16.0172C48.7693 17.8163 48.8946 20.2321 48.0745 22.0506C47.2836 23.8045 45.4986 25.3879 43.6908 25.9396C43.0157 26.1457 41.0051 26.3061 39.0722 26.3084C37.921 26.3097 37.8187 26.2956 37.8635 26.1415C37.8904 26.0489 38.0973 24.8693 38.3231 23.5201C38.714 21.1861 38.7264 21.0496 38.5803 20.7065L38.4265 20.3459L36.7782 20.3538C33.4142 20.3697 30.7291 20.4918 30.4907 20.6395C30.0888 20.8887 30.3319 19.6205 26.54 41.2517C26.1057 43.7296 25.7637 45.9367 25.7801 46.1564C25.8087 46.5415 25.824 46.5583 26.2019 46.618C26.4177 46.6521 28.2278 46.7115 30.2245 46.7501C33.6793 46.8168 33.8655 46.8115 34.0725 46.6411C34.2687 46.4798 34.3874 45.8923 35.2755 40.6906C35.8175 37.5162 36.2823 34.8251 36.3084 34.7104L36.356 34.5018L40.1578 34.4598C43.2873 34.4253 44.0896 34.3886 44.6953 34.2527C48.7454 33.3437 52.1598 31.0371 54.3531 27.7284C56.9303 23.8403 57.6342 18.5879 56.161 14.2377C55.4367 12.0989 54.3458 10.3619 52.7467 8.80076C50.6674 6.77091 48.3304 5.62343 45.0878 5.04012L43.8614 4.81955L33.0697 4.80291C27.1342 4.79368 22.1455 4.80301 21.9836 4.82369ZM33.2278 53.293C31.0337 53.8986 29.5903 55.8638 29.5903 58.2457C29.5903 60.7354 31.069 62.6247 33.396 63.1083C35.793 63.6064 37.8847 62.6892 38.8529 60.7155C39.0445 60.3248 39.2014 59.9771 39.2014 59.943C39.2014 59.9088 38.6495 59.8809 37.975 59.8809C36.7888 59.8809 36.7487 59.8877 36.7487 60.086C36.7487 60.199 36.561 60.4751 36.3301 60.7015C35.8126 61.2089 35.2991 61.3606 34.296 61.3023C33.168 61.2367 32.5256 60.8331 32.0338 59.8809C31.8557 59.5362 31.8016 59.2424 31.7679 58.4381C31.7141 57.1526 31.9274 56.4998 32.6172 55.839C33.1453 55.3332 33.6132 55.1675 34.5135 55.1675C35.6053 55.1675 36.3322 55.5455 36.6669 56.2874L36.856 56.7066H38.0306H39.2051L39.1411 56.4421C38.8177 55.1045 37.5492 53.8308 36.0924 53.3807C35.3858 53.1624 33.8693 53.1159 33.2278 53.293ZM61.9679 53.2971C59.6435 53.7913 58.2415 55.6696 58.2357 58.2976C58.2316 60.2047 59.2144 61.9872 60.6688 62.7097C62.1405 63.4409 64.1687 63.4356 65.672 62.6967C66.3633 62.3568 67.2002 61.5147 67.5594 60.7975C68.3123 59.2942 68.3208 57.1761 67.5802 55.6667C67.2256 54.944 66.2508 53.9818 65.5581 53.6709C64.4555 53.1759 63.1682 53.0419 61.9679 53.2971ZM-2.87611 53.3959C-3.66067 53.6027 -4.29366 53.9778 -4.88602 54.5867C-5.82824 55.5553 -6.21802 56.625 -6.22057 58.2495C-6.22302 59.7918 -5.81451 60.9133 -4.89593 61.8861C-3.92909 62.91 -2.80989 63.2961 -1.01051 63.2265C-0.112446 63.1918 0.111041 63.1481 0.608246 62.9105C1.41674 62.5239 2.23437 61.6932 2.65671 60.8291C2.84557 60.4429 2.99999 60.0715 2.99999 60.0039C2.99999 59.9109 2.71499 59.8809 1.8333 59.8809C0.667601 59.8809 0.666619 59.8811 0.604517 60.1238C0.570278 60.2574 0.383483 60.5392 0.18933 60.7498C-0.624073 61.6326 -2.49928 61.6225 -3.34761 60.7308C-3.90349 60.1465 -4.20163 58.8292 -4.05133 57.6219C-3.84354 55.953 -2.72689 54.9528 -1.23852 55.1024C-0.457782 55.1808 0.0839637 55.5353 0.40438 56.1774L0.668484 56.7066H1.78513C3.0977 56.7066 3.09868 56.7054 2.60501 55.6913C2.03305 54.5162 1.0509 53.7085 -0.191913 53.3911C-0.907405 53.2084 -2.17357 53.2107 -2.87611 53.3959ZM4.27361 53.3099C4.27263 53.3528 4.27214 55.5739 4.27253 58.2457L4.27312 63.1034L7.31924 63.1288L10.3654 63.1543L10.3372 62.263L10.3089 61.3719L8.32228 61.3459L6.33562 61.3199V57.3298C6.33562 53.5965 6.32453 53.3395 6.16393 53.3332C6.06945 53.3297 5.606 53.3053 5.13381 53.2793C4.66172 53.2533 4.27459 53.2671 4.27361 53.3099ZM11.7315 58.2457V63.1515H12.8107H13.8898V58.2457V53.3399H12.8107H11.7315V58.2457ZM15.5837 58.2457L15.5869 63.1515H16.6011H17.6153L17.6411 59.8626L17.6669 56.5737L18.8395 58.3475C19.4845 59.3232 20.4694 60.8031 21.0282 61.6364L22.0443 63.1515H23.1177H24.191V58.2457V53.3399H23.2112H22.2315L22.2547 56.7547C22.2675 58.6328 22.2559 60.1686 22.2289 60.1675C22.2019 60.1663 21.1664 58.6297 19.9277 56.7526L17.6757 53.3399H16.6281H15.5806L15.5837 58.2457ZM26.0551 58.2457V63.1515H27.1342H28.2134V58.2457V53.3399H27.1342H26.0551V58.2457ZM40.4768 58.2457V63.1515H41.5069H42.537V61.42V59.6886H44.0888C45.9561 59.6886 46.4732 59.5704 47.1046 58.9998C48.3265 57.8955 48.2721 55.2168 47.0059 54.1266C46.2166 53.4471 45.6417 53.3445 42.6106 53.3418L40.4768 53.3399V58.2457ZM49.3064 58.239V63.1515H50.4346H51.5628V61.42V59.6886L52.4212 59.6898L53.2797 59.691L54.2944 61.4213L55.3091 63.1515H56.4364C57.0564 63.1515 57.549 63.1191 57.5309 63.0793C57.513 63.0396 57.0463 62.2655 56.4939 61.359C55.9416 60.4525 55.4643 59.646 55.4333 59.5669C55.3966 59.4733 55.4906 59.354 55.7018 59.2258C56.2037 58.9213 56.5307 58.5385 56.8211 57.9159C57.1616 57.1863 57.2029 55.9911 56.9162 55.1706C56.6912 54.5265 55.9004 53.7051 55.3306 53.5238C55.0709 53.4411 54.0391 53.3898 52.1269 53.3643L49.3064 53.3267V58.239ZM51.5628 56.4677V57.9822L52.8627 57.9383C54.3827 57.887 54.8376 57.7385 55.0577 57.2222C55.3604 56.5117 55.1265 55.5348 54.5767 55.2133C54.317 55.0614 54.0209 55.0219 52.9118 54.9909L51.5628 54.9533V56.4677ZM62.2929 55.1519C61.6175 55.3808 61.3274 55.5797 60.9765 56.0546C60.5241 56.6671 60.3635 57.3427 60.4125 58.4272C60.4438 59.118 60.5121 59.4805 60.6824 59.8605C60.9556 60.4703 61.6264 61.0839 62.1966 61.2456C62.8137 61.4207 63.8063 61.3978 64.3394 61.1962C65.6899 60.6855 66.356 58.6759 65.7805 56.8488C65.3128 55.364 63.8159 54.6358 62.2929 55.1519ZM42.6106 55.2218C42.5701 55.2625 42.537 55.8945 42.537 56.6265V57.9571H43.7174C45.4548 57.9571 45.8806 57.722 45.9456 56.7271C45.9736 56.3002 45.9376 56.1089 45.7846 55.8701C45.429 55.3151 45.1839 55.2273 43.8718 55.1856C43.2186 55.1648 42.6511 55.1811 42.6106 55.2218Z" fill="#F42323"/>
</g>
<defs>
<clipPath id="clip0_145_11">
<rect width="57" height="48" fill="white" transform="translate(3 2)"/>
</clipPath>
</defs>
</svg>
