<svg width="51" height="51" viewBox="0 0 51 51" fill="none" xmlns="http://www.w3.org/2000/svg">
<g clip-path="url(#clip0_143_8)">
<path fill-rule="evenodd" clip-rule="evenodd" d="M15.9836 4.58753C11.346 5.17825 8.06554 6.77716 4.97116 9.95506C2.97214 12.0078 1.51614 14.5918 0.7666 17.4163C-0.0154083 20.3637 -0.273624 25.1148 0.189048 28.0456C0.847932 32.2197 3.08035 36.2893 6.05249 38.7346C8.34073 40.6171 10.8428 41.8175 13.5359 42.3247C15.6171 42.7165 17.0403 42.6723 17.4612 42.2025C17.6272 42.0172 17.773 41.3316 18.2753 38.3738C18.6118 36.392 18.8625 34.7076 18.8323 34.6305C18.7883 34.5183 18.5102 34.4879 17.4296 34.4773C15.8528 34.4618 14.977 34.2736 13.7018 33.6758C12.7213 33.2163 12.1323 32.8295 11.434 32.1865C9.98157 30.8489 8.97264 28.9366 8.56402 26.747C8.39391 25.8353 8.39175 22.6933 8.5603 21.5045C8.98039 18.5436 10.1989 16.2492 12.1435 14.7573C13.2474 13.9104 14.4171 13.3394 15.5475 13.0955C15.83 13.0346 20.0134 12.9966 26.9278 12.9921C38.8366 12.9845 38.2608 12.9595 39.4466 13.5344C40.196 13.8976 41.3146 14.9832 41.7615 15.7811C42.7693 17.5801 42.8946 19.9959 42.0745 21.8144C41.2836 23.5683 39.4986 25.1517 37.6908 25.7035C37.0157 25.9095 35.0051 26.07 33.0722 26.0722C31.921 26.0735 31.8187 26.0594 31.8635 25.9053C31.8904 25.8128 32.0973 24.6332 32.3231 23.284C32.714 20.9499 32.7264 20.8135 32.5803 20.4703L32.4265 20.1097L30.7782 20.1176C27.4142 20.1336 24.7291 20.2556 24.4907 20.4034C24.0888 20.6525 24.3319 19.3843 20.54 41.0156C20.1057 43.4934 19.7637 45.7005 19.7801 45.9202C19.8087 46.3053 19.824 46.3221 20.2019 46.3819C20.4177 46.4159 22.2278 46.4754 24.2245 46.5139C27.6793 46.5806 27.8655 46.5753 28.0725 46.405C28.2687 46.2436 28.3874 45.6561 29.2755 40.4544C29.8175 37.28 30.2823 34.589 30.3084 34.4742L30.356 34.2657L34.1578 34.2236C37.2873 34.1891 38.0896 34.1524 38.6953 34.0165C42.7454 33.1075 46.1598 30.8009 48.3531 27.4923C50.9303 23.6042 51.6342 18.3517 50.161 14.0015C49.4367 11.8628 48.3458 10.1257 46.7467 8.5646C44.6674 6.53475 42.3304 5.38727 39.0878 4.80396L37.8614 4.58339L27.0697 4.56675C21.1342 4.55752 16.1455 4.56685 15.9836 4.58753ZM27.2278 53.0568C25.0337 53.6625 23.5903 55.6277 23.5903 58.0095C23.5903 60.4993 25.069 62.3886 27.396 62.8721C29.793 63.3702 31.8847 62.453 32.8529 60.4793C33.0445 60.0886 33.2014 59.741 33.2014 59.7068C33.2014 59.6727 32.6495 59.6448 31.975 59.6448C30.7888 59.6448 30.7487 59.6515 30.7487 59.8499C30.7487 59.9629 30.561 60.239 30.3301 60.4653C29.8126 60.9727 29.2991 61.1244 28.296 61.0661C27.168 61.0005 26.5256 60.597 26.0338 59.6448C25.8557 59.3 25.8016 59.0063 25.7679 58.2019C25.7141 56.9165 25.9274 56.2636 26.6172 55.6029C27.1453 55.097 27.6132 54.9313 28.5135 54.9313C29.6053 54.9313 30.3322 55.3094 30.6669 56.0512L30.856 56.4704H32.0306H33.2051L33.1411 56.2059C32.8177 54.8683 31.5492 53.5947 30.0924 53.1446C29.3858 52.9262 27.8693 52.8798 27.2278 53.0568ZM55.9679 53.061C53.6435 53.5551 52.2415 55.4335 52.2357 58.0614C52.2316 59.9686 53.2144 61.751 54.6688 62.4735C56.1405 63.2048 58.1687 63.1995 59.672 62.4605C60.3633 62.1207 61.2002 61.2785 61.5594 60.5613C62.3123 59.058 62.3208 56.9399 61.5802 55.4305C61.2256 54.7078 60.2508 53.7457 59.5581 53.4348C58.4555 52.9398 57.1682 52.8058 55.9679 53.061ZM-8.87611 53.1598C-9.66067 53.3666 -10.2937 53.7416 -10.886 54.3505C-11.8282 55.3191 -12.218 56.3889 -12.2206 58.0134C-12.223 59.5556 -11.8145 60.6771 -10.8959 61.6499C-9.92909 62.6739 -8.80989 63.0599 -7.01051 62.9903C-6.11245 62.9556 -5.88896 62.9119 -5.39175 62.6744C-4.58326 62.2878 -3.76563 61.457 -3.34329 60.5929C-3.15443 60.2067 -3.00001 59.8353 -3.00001 59.7677C-3.00001 59.6748 -3.28501 59.6448 -4.1667 59.6448C-5.3324 59.6448 -5.33338 59.645 -5.39548 59.8877C-5.42972 60.0213 -5.61652 60.303 -5.81067 60.5137C-6.62407 61.3964 -8.49928 61.3863 -9.34761 60.4946C-9.90349 59.9104 -10.2016 58.593 -10.0513 57.3857C-9.84354 55.7169 -8.72689 54.7166 -7.23852 54.8662C-6.45778 54.9446 -5.91604 55.2991 -5.59562 55.9413L-5.33152 56.4704H-4.21487C-2.9023 56.4704 -2.90132 56.4693 -3.39499 55.4551C-3.96695 54.28 -4.9491 53.4723 -6.19191 53.155C-6.90741 52.9722 -8.17357 52.9745 -8.87611 53.1598ZM-1.72639 53.0738C-1.72737 53.1167 -1.72786 55.3378 -1.72747 58.0095L-1.72688 62.8672L1.31924 62.8926L4.36535 62.9181L4.33719 62.0269L4.30894 61.1358L2.32228 61.1097L0.335618 61.0837V57.0937C0.335618 53.3603 0.324532 53.1033 0.163931 53.0971C0.0694543 53.0935 -0.394002 53.0692 -0.866189 53.0432C-1.33828 53.0171 -1.72541 53.031 -1.72639 53.0738ZM5.73149 58.0095V62.9153H6.81066H7.88983V58.0095V53.1037H6.81066H5.73149V58.0095ZM9.58374 58.0095L9.58688 62.9153H10.6011H11.6153L11.6411 59.6264L11.6669 56.3376L12.8395 58.1114C13.4845 59.0871 14.4694 60.567 15.0282 61.4003L16.0443 62.9153H17.1177H18.191V58.0095V53.1037H17.2112H16.2315L16.2547 56.5185C16.2675 58.3967 16.2559 59.9325 16.2289 59.9313C16.2019 59.9302 15.1664 58.3935 13.9277 56.5164L11.6757 53.1037H10.6281H9.58061L9.58374 58.0095ZM20.0551 58.0095V62.9153H21.1342H22.2134V58.0095V53.1037H21.1342H20.0551V58.0095ZM34.4768 58.0095V62.9153H35.5069H36.537V61.1839V59.4524H38.0888C39.9561 59.4524 40.4732 59.3343 41.1046 58.7637C42.3265 57.6594 42.2721 54.9806 41.0059 53.8905C40.2166 53.211 39.6417 53.1083 36.6106 53.1056L34.4768 53.1037V58.0095ZM43.3064 58.0029V62.9153H44.4346H45.5628V61.1839V59.4524L46.4212 59.4536L47.2797 59.4548L48.2944 61.1851L49.3091 62.9153H50.4364C51.0564 62.9153 51.549 62.8829 51.5309 62.8432C51.513 62.8034 51.0463 62.0294 50.4939 61.1229C49.9416 60.2164 49.4643 59.4099 49.4333 59.3307C49.3966 59.2371 49.4906 59.1178 49.7018 58.9896C50.2037 58.6852 50.5307 58.3023 50.8211 57.6798C51.1616 56.9501 51.2029 55.7549 50.9162 54.9344C50.6912 54.2903 49.9004 53.4689 49.3306 53.2876C49.0709 53.205 48.0391 53.1536 46.1269 53.1281L43.3064 53.0905V58.0029ZM45.5628 56.2316V57.746L46.8627 57.7022C48.3827 57.6508 48.8376 57.5024 49.0577 56.986C49.3604 56.2755 49.1265 55.2986 48.5767 54.9771C48.317 54.8253 48.0209 54.7857 46.9118 54.7547L45.5628 54.7171V56.2316ZM56.2929 54.9158C55.6175 55.1446 55.3274 55.3435 54.9765 55.8184C54.5241 56.4309 54.3635 57.1065 54.4125 58.191C54.4438 58.8819 54.5121 59.2443 54.6824 59.6244C54.9556 60.2341 55.6264 60.8478 56.1966 61.0095C56.8137 61.1845 57.8063 61.1616 58.3394 60.96C59.6899 60.4493 60.356 58.4398 59.7805 56.6126C59.3128 55.1279 57.8159 54.3996 56.2929 54.9158ZM36.6106 54.9856C36.5701 55.0263 36.537 55.6584 36.537 56.3903V57.7209H37.7174C39.4548 57.7209 39.8806 57.4858 39.9456 56.4909C39.9736 56.064 39.9376 55.8728 39.7846 55.6339C39.429 55.0789 39.1839 54.9912 37.8718 54.9494C37.2186 54.9287 36.6511 54.9449 36.6106 54.9856Z" fill="#F42323"/>
</g>
<defs>
<clipPath id="clip0_143_8">
<rect width="51" height="51" fill="white"/>
</clipPath>
</defs>
</svg>
